<svg width="30" height="28" viewBox="0 0 30 28" fill="none" xmlns="http://www.w3.org/2000/svg">
<path d="M28 11.4167H2V26.9167H28V11.4167Z" fill="#FFE0B1"/>
<path d="M8.5 16.4167H4.5V22.9167H8.5V16.4167Z" fill="#51DBFF"/>
<path d="M4.5 16.4167L8.5 20.4167V22.9167L4.5 18.9167V16.4167Z" fill="#B2F3FF"/>
<path d="M18.5 15.4167H11.5C10.9488 15.4167 10.5 15.8652 10.5 16.4167V26.9167C10.5 27.1928 10.7236 27.4167 11 27.4167H19C19.2764 27.4167 19.5 27.1928 19.5 26.9167V16.4167C19.5 15.8652 19.0513 15.4167 18.5 15.4167Z" fill="#7E5C62"/>
<path d="M10.5 26.9167H15V15.4167H11.5C10.9477 15.4167 10.5 15.8644 10.5 16.4167V26.9167Z" fill="#5C546A"/>
<path d="M25 11.4167C25 12.5213 25.8954 13.4167 27 13.4167C28.1046 13.4167 29 12.5213 29 11.4167L27.2322 2.136C27.0975 1.42856 26.4789 0.916687 25.7587 0.916687H4.24125C3.52106 0.916687 2.9025 1.42856 2.76775 2.136L1 11.4167C1 12.5213 1.89544 13.4167 3 13.4167C4.10456 13.4167 5 12.5213 5 11.4167C5 12.5213 5.89544 13.4167 7 13.4167C8.10456 13.4167 9 12.5213 9 11.4167C9 12.5213 9.89544 13.4167 11 13.4167C12.1046 13.4167 13 12.5213 13 11.4167C13 12.5213 13.8954 13.4167 15 13.4167C16.1046 13.4167 17 12.5213 17 11.4167C17 12.5213 17.8954 13.4167 19 13.4167C20.1046 13.4167 21 12.5213 21 11.4167C21 12.5213 21.8954 13.4167 23 13.4167C24.1046 13.4167 25 12.5213 25 11.4167Z" fill="#FF4F19"/>
<path d="M29.5 27.4167H0.5C0.223625 27.4167 0 27.1928 0 26.9167C0 26.6406 0.223625 26.4167 0.5 26.4167H29.5C29.7764 26.4167 30 26.6406 30 26.9167C30 27.1928 29.7764 27.4167 29.5 27.4167Z" fill="#5C546A"/>
<path d="M13 11.4168C13.0001 12.5213 13.8954 13.4167 15 13.4167C16.1046 13.4167 16.9999 12.5213 17 11.4168L16.75 0.916687H13.25L13 11.4168Z" fill="#E7001E"/>
<path d="M4.99999 11.4167L4.94299 11.8724C4.97743 11.7254 4.99999 11.5741 4.99999 11.4167Z" fill="#E7001E"/>
<path d="M9 11.4167L9.71875 0.916687H6.3125L5 11.4167C5 12.5213 5.89544 13.4167 7 13.4167C8.10456 13.4167 9 12.5213 9 11.4167Z" fill="#E7001E"/>
<path d="M25 11.4167C25 11.5741 25.0226 11.7254 25.057 11.8724L25 11.4167Z" fill="#E7001E"/>
<path d="M21 11.417C21.0002 12.5214 21.8955 13.4167 23 13.4167C24.1046 13.4167 25 12.5213 25 11.4167L23.6875 0.916687H20.2812L21 11.417Z" fill="#E7001E"/>
<path d="M8.9 15.4167H4.1C3.76862 15.4167 3.5 15.6406 3.5 15.9167V23.4167C3.5 23.6928 3.76862 23.9167 4.1 23.9167H8.9C9.23137 23.9167 9.5 23.6928 9.5 23.4167V15.9167C9.5 15.6406 9.23137 15.4167 8.9 15.4167ZM8.5 16.4167V17.9167H4.5V16.4167H8.5ZM4.5 22.9167V18.9167H8.5V22.9167H4.5Z" fill="#7E5C62"/>
<path d="M25.5 16.4167H21.5V22.9167H25.5V16.4167Z" fill="#51DBFF"/>
<path d="M21.5 16.4167L25.5 20.4167V22.9167L21.5 18.9167V16.4167Z" fill="#B2F3FF"/>
<path d="M25.9 15.4167H21.1C20.7686 15.4167 20.5 15.6406 20.5 15.9167V23.4167C20.5 23.6928 20.7686 23.9167 21.1 23.9167H25.9C26.2314 23.9167 26.5 23.6928 26.5 23.4167V15.9167C26.5 15.6406 26.2314 15.4167 25.9 15.4167ZM25.5 16.4167V17.9167H21.5V16.4167H25.5ZM21.5 22.9167V18.9167H25.5V22.9167H21.5Z" fill="#7E5C62"/>
<path d="M13.9375 22.9167H11.5625C11.528 22.9167 11.5 22.8887 11.5 22.8542V16.4792C11.5 16.4447 11.528 16.4167 11.5625 16.4167H13.9375C13.972 16.4167 14 16.4447 14 16.4792V22.8542C14 22.8887 13.972 22.9167 13.9375 22.9167Z" fill="#51DBFF"/>
<path d="M14 19.4167L11.5 16.9167V19.4167L14 21.9167V19.4167Z" fill="#B2F3FF"/>
<path d="M18.4375 22.9167H16.0625C16.028 22.9167 16 22.8887 16 22.8542V16.4792C16 16.4447 16.028 16.4167 16.0625 16.4167H18.4375C18.472 16.4167 18.5 16.4447 18.5 16.4792V22.8542C18.5 22.8887 18.472 22.9167 18.4375 22.9167Z" fill="#51DBFF"/>
<path d="M18.5 19.4167L16 16.9167V19.4167L18.5 21.9167V19.4167Z" fill="#B2F3FF"/>
</svg>
