<svg width="31" height="31" viewBox="0 0 31 31" fill="none" xmlns="http://www.w3.org/2000/svg">
<path d="M15.5 0.619995C7.29553 0.619995 0.619995 7.29553 0.619995 15.5C0.619995 19.8964 2.53827 23.8526 5.57999 26.5788V26.5893L5.79575 26.7753C5.83357 26.8082 5.87511 26.8355 5.91355 26.8677C6.18077 27.0934 6.45605 27.3098 6.73877 27.5168C6.81503 27.5726 6.89129 27.6266 6.96879 27.6805C7.26887 27.8913 7.57577 28.0922 7.89073 28.2807C7.94343 28.3123 7.99737 28.3421 8.05007 28.3724C8.39541 28.5733 8.74819 28.7624 9.11027 28.9354C9.11399 28.9373 9.11771 28.9385 9.12143 28.9404C9.89581 29.3093 10.708 29.6112 11.5487 29.8431C11.5642 29.8474 11.5797 29.8524 11.5952 29.8561C11.9927 29.9646 12.3969 30.0557 12.8067 30.1308C12.8452 30.1376 12.883 30.1444 12.9214 30.1512C13.317 30.2207 13.7175 30.2758 14.1236 30.3137C14.1701 30.318 14.2166 30.3205 14.2625 30.3242C14.6711 30.3583 15.0827 30.38 15.5 30.38C15.9173 30.38 16.3289 30.3583 16.7375 30.3242C16.784 30.3205 16.8305 30.318 16.8764 30.3137C17.2825 30.2765 17.683 30.2207 18.0786 30.1512C18.117 30.1444 18.1548 30.1376 18.1933 30.1308C18.6031 30.0557 19.0073 29.9646 19.4048 29.8561C19.4203 29.8518 19.4358 29.8474 19.4513 29.8431C20.292 29.6112 21.1042 29.3093 21.8786 28.9404C21.8823 28.9385 21.886 28.9373 21.8897 28.9354C22.2518 28.7624 22.6046 28.5727 22.9499 28.3724C23.0032 28.3414 23.0566 28.3123 23.1093 28.2807C23.4248 28.0922 23.7317 27.8907 24.0312 27.6805C24.1081 27.6266 24.185 27.5726 24.2612 27.5168C24.5439 27.3098 24.8192 27.0934 25.0864 26.8677C25.1249 26.8355 25.1664 26.8082 25.2042 26.7753L25.42 26.5893V26.5788C28.4617 23.852 30.38 19.8964 30.38 15.5C30.38 7.29553 23.7045 0.619995 15.5 0.619995ZM15.5 15.5C12.7652 15.5 10.54 13.2748 10.54 10.54C10.54 7.80517 12.7652 5.57999 15.5 5.57999C18.2348 5.57999 20.46 7.80517 20.46 10.54C20.46 13.2748 18.2348 15.5 15.5 15.5ZM17.36 16.74C21.1203 16.74 24.18 19.7997 24.18 23.56V26.014C24.154 26.0357 24.1267 26.0555 24.1006 26.0772C23.8557 26.2762 23.6046 26.4653 23.348 26.6464C23.2909 26.6867 23.2351 26.7282 23.1781 26.7673C22.9009 26.9564 22.6164 27.1337 22.3268 27.3017C22.2741 27.3327 22.2208 27.3631 22.1675 27.3935C21.8637 27.564 21.5543 27.7239 21.2387 27.8702C21.2059 27.8857 21.1724 27.9006 21.1389 27.9155C20.1091 28.3836 19.0241 28.7227 17.9075 28.9236C17.8721 28.9298 17.8368 28.9366 17.8014 28.9428C17.4499 29.003 17.0953 29.0495 16.7381 29.0823C16.6892 29.0867 16.6396 29.0898 16.59 29.0935C16.2285 29.1214 15.8652 29.14 15.5 29.14C15.1348 29.14 14.7715 29.1214 14.41 29.0923C14.3611 29.0885 14.3115 29.0854 14.2619 29.0811C13.9047 29.0482 13.5501 29.0024 13.1986 28.9416C13.1632 28.9354 13.1279 28.9292 13.0925 28.9224C11.9759 28.7215 10.8909 28.3824 9.86109 27.9143C9.82761 27.8988 9.79413 27.8845 9.76127 27.869C9.44569 27.7227 9.13631 27.5627 8.83251 27.3922C8.77919 27.3618 8.72649 27.3315 8.67317 27.3005C8.38363 27.1331 8.09905 26.9551 7.82191 26.766C7.76425 26.727 7.70845 26.6854 7.65203 26.6451C7.39535 26.4641 7.14425 26.2756 6.89935 26.076C6.87331 26.0549 6.84603 26.0344 6.81999 26.0127V23.56C6.81999 19.7997 9.87969 16.74 13.64 16.74H17.36ZM25.42 24.8471V23.56C25.42 19.672 22.6523 16.4182 18.9844 15.6643C20.6218 14.5477 21.7 12.6672 21.7 10.54C21.7 7.12131 18.9187 4.33999 15.5 4.33999C12.0813 4.33999 9.29999 7.12131 9.29999 10.54C9.29999 12.6672 10.3782 14.5477 12.0156 15.6643C8.34767 16.4182 5.57999 19.672 5.57999 23.56V24.8471C3.27607 22.4037 1.86 19.1152 1.86 15.5C1.86 7.97877 7.97877 1.86 15.5 1.86C23.0212 1.86 29.14 7.97877 29.14 15.5C29.14 19.1152 27.7239 22.4037 25.42 24.8471Z" fill="#CCCCCC"/>
</svg>
