<svg width="33" height="33" viewBox="0 0 33 33" fill="none" xmlns="http://www.w3.org/2000/svg">
<path d="M28.2395 15.8147L22.7373 11.4561L22.9987 10.9856C23.3373 10.2714 23.4035 9.45811 23.1849 8.6985L25.936 5.94741C26.1937 6.19283 26.5076 6.37142 26.8502 6.46756C27.1929 6.56369 27.5538 6.57447 27.9016 6.49893C28.2493 6.42339 28.5733 6.26384 28.8452 6.03422C29.117 5.8046 29.3285 5.5119 29.4612 5.18169C29.5939 4.85148 29.6436 4.4938 29.6062 4.13991C29.5687 3.78603 29.4452 3.44669 29.2463 3.15157C29.0475 2.85644 28.7794 2.6145 28.4655 2.44687C28.1516 2.27925 27.8014 2.19106 27.4455 2.18999C27.4473 1.83142 27.3605 1.47796 27.193 1.16094C27.0254 0.843923 26.7822 0.573149 26.485 0.372626C26.1877 0.172103 25.8456 0.0480276 25.4889 0.0114001C25.1322 -0.0252275 24.7719 0.026725 24.4401 0.162651C24.1083 0.298577 23.8152 0.514277 23.5867 0.790626C23.3582 1.06697 23.2014 1.39543 23.1303 1.74687C23.0591 2.09832 23.0758 2.46189 23.1788 2.80535C23.2818 3.14881 23.468 3.46154 23.7208 3.71583L20.9697 6.46692C20.199 6.2486 19.3752 6.31948 18.6532 6.66622L17.5194 7.29355C16.248 6.23846 14.7413 5.50494 13.1267 5.15499C11.512 4.80505 9.83682 4.84896 8.24271 5.28302C6.64859 5.71708 5.1824 6.52853 3.96806 7.64878C2.75371 8.76904 1.8269 10.1652 1.26597 11.7192C0.705027 13.2732 0.526446 14.9394 0.745316 16.577C0.964185 18.2146 1.57407 19.7754 2.52343 21.1276C3.47279 22.4797 4.73371 23.5835 6.19963 24.3455C7.66555 25.1075 9.29338 25.5054 10.9455 25.5056H24.6683H24.7598H24.995C26.4243 25.5039 27.7945 24.9354 28.8052 23.9247C29.8158 22.9141 30.3844 21.5438 30.3861 20.1145C30.3891 19.28 30.1964 18.4563 29.8236 17.7096C29.4508 16.9629 28.9083 16.314 28.2395 15.8147ZM24.8055 4.01642C24.8591 3.96283 24.8995 3.89756 24.9235 3.82572C24.9476 3.75389 24.9547 3.67746 24.9443 3.60242C24.9338 3.52739 24.9061 3.4558 24.8633 3.39327C24.8205 3.33075 24.7639 3.27899 24.6977 3.24207C24.4971 3.13052 24.3327 2.96372 24.224 2.76149C24.1154 2.55926 24.0671 2.3301 24.0849 2.10123C24.1026 1.87235 24.1857 1.65339 24.3243 1.47035C24.4628 1.28731 24.651 1.14788 24.8664 1.06864C25.0819 0.989392 25.3155 0.973656 25.5397 1.0233C25.7638 1.07294 25.969 1.18588 26.1308 1.34869C26.2926 1.5115 26.4043 1.71735 26.4526 1.94177C26.5009 2.1662 26.4838 2.39977 26.4033 2.61474C26.3704 2.70279 26.3635 2.79844 26.3835 2.89028C26.4034 2.98213 26.4494 3.0663 26.5158 3.13276C26.5823 3.19922 26.6665 3.24517 26.7583 3.26513C26.8501 3.28509 26.9458 3.27822 27.0338 3.24533C27.2494 3.16378 27.4839 3.14592 27.7094 3.19388C27.9349 3.24184 28.1418 3.3536 28.3055 3.51585C28.4693 3.67809 28.5829 3.88399 28.633 4.109C28.683 4.33402 28.6673 4.56867 28.5877 4.78501C28.5081 5.00135 28.368 5.19026 28.1841 5.32923C28.0002 5.4682 27.7803 5.55138 27.5504 5.56886C27.3206 5.58634 27.0905 5.53738 26.8877 5.42781C26.6849 5.31825 26.5179 5.1527 26.4065 4.95088C26.3696 4.88473 26.3178 4.82804 26.2553 4.78526C26.1928 4.74248 26.1212 4.71478 26.0462 4.70433C25.9711 4.69389 25.8947 4.70097 25.8229 4.72504C25.751 4.74911 25.6858 4.78951 25.6322 4.84306L22.7406 7.73791C22.5199 7.41244 22.2394 7.13191 21.9139 6.91127L24.8055 4.01642ZM19.1008 7.53533C19.5197 7.3355 19.9901 7.26966 20.4478 7.34678C20.9056 7.42389 21.3284 7.64021 21.6587 7.96628C21.9891 8.29235 22.2109 8.71233 22.294 9.169C22.3771 9.62568 22.3174 10.0969 22.1231 10.5184L21.6722 11.332L18.4375 17.1707C18.0983 17.7398 17.6337 18.2241 17.0791 18.5866C16.5245 18.9491 15.8946 19.1803 15.2371 19.2626C14.5797 19.3449 13.9122 19.2761 13.2853 19.0615C12.6585 18.8468 12.0889 18.492 11.6199 18.024C11.1509 17.556 10.7948 16.9872 10.5788 16.3609C10.3628 15.7345 10.2926 15.0671 10.3734 14.4095C10.4543 13.7519 10.6841 13.1214 11.0454 12.566C11.4067 12.0106 11.8899 11.545 12.4583 11.2045L17.686 8.30315L17.7252 8.28355L19.1008 7.53533ZM24.982 24.5254C24.9068 24.5254 24.8317 24.5254 24.7565 24.5254H24.6912C24.6414 24.517 24.5906 24.517 24.5409 24.5254H10.9455C9.46555 24.5286 8.00612 24.179 6.68823 23.5055C5.37035 22.8321 4.23197 21.8542 3.36746 20.6529C2.50295 19.4517 1.93722 18.0617 1.71717 16.5981C1.49711 15.1346 1.62906 13.6397 2.10209 12.2373C2.57512 10.835 3.3756 9.56557 4.43716 8.53434C5.49873 7.50311 6.79081 6.73976 8.20629 6.30757C9.62177 5.87539 11.1199 5.78682 12.5764 6.0492C14.033 6.31158 15.406 6.91736 16.5817 7.81632L11.9649 10.3746C11.2662 10.7898 10.6715 11.3591 10.2262 12.0391C9.78103 12.7191 9.49705 13.4918 9.39599 14.2983C9.29492 15.1048 9.37945 15.9237 9.64311 16.6925C9.90677 17.4614 10.3426 18.1598 10.9173 18.7345C11.4921 19.3093 12.1905 19.7451 12.9593 20.0087C13.7282 20.2724 14.5471 20.3569 15.3536 20.2559C16.16 20.1548 16.9328 19.8708 17.6128 19.4256C18.2928 18.9804 18.8621 18.3857 19.2772 17.6869L22.2472 12.3252L27.6318 16.6054C28.3657 17.1618 28.9069 17.934 29.1794 18.8137C29.4518 19.6934 29.442 20.6364 29.1511 21.5101C28.8602 22.3839 28.3029 23.1446 27.5574 23.6855C26.812 24.2263 25.916 24.52 24.995 24.5254H24.982Z" fill="#E13D3B"/>
<path d="M3.75741 18.9505C4.20854 18.9505 4.57425 18.5848 4.57425 18.1337C4.57425 17.6825 4.20854 17.3168 3.75741 17.3168C3.30629 17.3168 2.94058 17.6825 2.94058 18.1337C2.94058 18.5848 3.30629 18.9505 3.75741 18.9505Z" fill="#E13D3B"/>
<path d="M5.39108 13.6337C5.84221 13.6337 6.20791 13.268 6.20791 12.8168C6.20791 12.3657 5.84221 12 5.39108 12C4.93996 12 4.57425 12.3657 4.57425 12.8168C4.57425 13.268 4.93996 13.6337 5.39108 13.6337Z" fill="#E13D3B"/>
<path d="M7.02475 13.6337C7.47587 13.6337 7.84158 13.268 7.84158 12.8168C7.84158 12.3657 7.47587 12 7.02475 12C6.57362 12 6.20792 12.3657 6.20792 12.8168C6.20792 13.268 6.57362 13.6337 7.02475 13.6337Z" fill="#E13D3B"/>
<path d="M15.5198 13.6337C15.9709 13.6337 16.3366 13.268 16.3366 12.8168C16.3366 12.3657 15.9709 12 15.5198 12C15.0687 12 14.703 12.3657 14.703 12.8168C14.703 13.268 15.0687 13.6337 15.5198 13.6337Z" fill="#E13D3B"/>
</svg>
