<svg width="50" height="50" viewBox="0 0 50 50" fill="none" xmlns="http://www.w3.org/2000/svg">
<path d="M8.66699 15H38.667C39.219 15 39.667 14.553 39.667 14C39.667 13.447 39.219 13 38.667 13H8.66699C8.11499 13 7.66699 13.447 7.66699 14C7.66699 14.553 8.11399 15 8.66699 15Z" fill="#231F20"/>
<path d="M8.35449 37H28.9795C29.359 37 29.667 36.553 29.667 36C29.667 35.447 29.359 35 28.9795 35H8.35449C7.97499 35 7.66699 35.447 7.66699 36C7.66699 36.553 7.9743 37 8.35449 37Z" fill="#231F20"/>
<path d="M8.51074 26H33.8232C34.289 26 34.667 25.553 34.667 25C34.667 24.447 34.289 24 33.8232 24H8.51074C8.04499 24 7.66699 24.447 7.66699 25C7.66699 25.553 8.04415 26 8.51074 26Z" fill="#231F20"/>
</svg>
