<svg width="38" height="38" viewBox="0 0 38 38" fill="none" xmlns="http://www.w3.org/2000/svg">
<path d="M36.0288 27.0037C35.8975 26.6723 35.7004 26.3709 35.4493 26.1178C35.1983 25.8648 34.8985 25.6652 34.5681 25.5312C34.2488 25.3961 33.9056 25.3263 33.5588 25.3263C33.2119 25.3263 32.8687 25.3961 32.5494 25.5312L24.9909 28.2091C25.0168 28.058 25.0307 27.9051 25.0325 27.7519C25.0325 27.0779 24.7648 26.4315 24.2882 25.9549C23.8116 25.4783 23.1652 25.2106 22.4913 25.2106H20.5319C18.7894 25.2091 17.0735 24.7832 15.5325 23.9697C13.8218 23.065 11.916 22.5922 9.98094 22.5922H7.01219V20.4844C7.01219 20.3269 6.94961 20.1759 6.83828 20.0645C6.72695 19.9532 6.5759 19.8906 6.41844 19.8906H2.375C2.21753 19.8906 2.06651 19.9532 1.95515 20.0645C1.84381 20.1759 1.78125 20.3269 1.78125 20.4844V35.0312C1.78125 35.1887 1.84381 35.3398 1.95515 35.4511C2.06651 35.5624 2.21753 35.625 2.375 35.625H6.41844C6.5759 35.625 6.72695 35.5624 6.83828 35.4511C6.94961 35.3398 7.01219 35.1887 7.01219 35.0312V33.6953C8.07803 33.7442 9.13158 33.9441 10.1412 34.2891L13.1931 35.3697C14.7574 35.9199 16.4037 36.201 18.0619 36.2009H18.6556C20.4332 36.1205 22.1814 35.7182 23.8153 35.0134L34.7581 30.3406C35.3461 30.0411 35.8017 29.5337 36.0365 28.917C36.2714 28.3004 36.2686 27.6185 36.0288 27.0037ZM5.82469 34.4375H2.96875V21.0781H5.82469V34.4375ZM34.2772 29.2837L23.37 33.9447C21.8663 34.5921 20.256 34.9564 18.62 35.0194C16.9051 35.0908 15.1923 34.8349 13.5731 34.2653L10.5331 33.1906C9.399 32.7928 8.21281 32.5627 7.01219 32.5078V23.7797H9.98094C11.722 23.7776 13.4369 24.2038 14.9744 25.0206C16.6878 25.9237 18.5951 26.3965 20.5319 26.3981H22.4913C22.6696 26.3981 22.8461 26.4333 23.0107 26.5017C23.1753 26.5701 23.3248 26.6704 23.4506 26.7967C23.5764 26.9231 23.676 27.073 23.7436 27.2379C23.8113 27.4029 23.8458 27.5795 23.845 27.7578C23.846 27.9511 23.8046 28.1422 23.7235 28.3177C23.6424 28.4932 23.5238 28.6486 23.3759 28.7731L22.3784 29.1234H15.9006C15.7432 29.1234 15.5921 29.186 15.4808 29.2973C15.3695 29.4087 15.3069 29.5597 15.3069 29.7172C15.3069 29.8746 15.3695 30.0257 15.4808 30.137C15.5921 30.2484 15.7432 30.3109 15.9006 30.3109H22.4913C22.5744 30.3109 32.9888 26.6534 32.9888 26.6534C33.1676 26.5755 33.3607 26.5352 33.5558 26.5352C33.7509 26.5352 33.9439 26.5755 34.1228 26.6534C34.304 26.7269 34.4684 26.8364 34.6062 26.9752C34.7439 27.114 34.8522 27.2792 34.9244 27.4609C35.0577 27.7923 35.0655 28.1609 34.9463 28.4976C34.8272 28.8343 34.5893 29.116 34.2772 29.2897V29.2837Z" fill="#C4C4C4"/>
<path d="M15.4851 18.9288L25.4185 24.2725C25.5044 24.3182 25.6002 24.3422 25.6976 24.3422C25.7949 24.3422 25.8907 24.3182 25.9766 24.2725L35.9041 18.9288C35.9989 18.8783 36.0783 18.803 36.1337 18.711C36.1891 18.619 36.2185 18.5137 36.2188 18.4063V7.71876C36.2185 7.61135 36.1891 7.50602 36.1337 7.41399C36.0783 7.32202 35.9989 7.24673 35.9041 7.19626L25.9766 1.8525C25.8907 1.80676 25.7949 1.78284 25.6976 1.78284C25.6002 1.78284 25.5044 1.80676 25.4185 1.8525L15.4851 7.19626C15.3913 7.2475 15.3132 7.32314 15.2589 7.41506C15.2045 7.50703 15.176 7.61194 15.1763 7.71876V18.4063C15.176 18.5131 15.2045 18.618 15.2589 18.7099C15.3132 18.8019 15.3913 18.8775 15.4851 18.9288ZM16.3638 8.71032L25.1038 13.4188V22.7585L16.3638 18.05V8.71032ZM19.4454 6.41251L27.8173 11.2456L25.6976 12.3856L17.0229 7.71876L19.4454 6.41251ZM22.5626 4.75L30.9404 9.58313L29.0641 10.5925L20.6745 5.75344L22.5626 4.75ZM29.7648 11.5484L31.4095 10.6875V12.6469L30.9701 12.2075C30.9009 12.139 30.8161 12.0886 30.7228 12.0607C30.6297 12.0327 30.5311 12.0281 30.4357 12.0472C30.3408 12.0671 30.2521 12.11 30.1776 12.1721C30.1031 12.2342 30.0449 12.3137 30.0082 12.4034L29.7648 12.9972V11.5484ZM26.2913 22.7585V13.4188L28.5773 12.1897V15.9778C28.5789 16.1141 28.6273 16.2456 28.7144 16.3504C28.8015 16.4552 28.922 16.5268 29.0556 16.5533C29.1894 16.5798 29.3281 16.5594 29.4485 16.4957C29.5689 16.432 29.6639 16.3288 29.7173 16.2034L30.7623 13.6563L31.5876 14.4756C31.6709 14.5573 31.7765 14.6127 31.8911 14.6347C32.0058 14.6567 32.1243 14.6445 32.232 14.5995C32.3397 14.5545 32.4318 14.4788 32.4967 14.3818C32.5616 14.2847 32.5965 14.1708 32.597 14.0541V10.0225L35.0313 8.71032V18.05L26.2913 22.7585ZM25.6976 3.05188L34.3723 7.71876L32.1516 8.90626L23.7798 4.085L25.6976 3.05188Z" fill="#C4C4C4"/>
</svg>
