<svg width="30" height="30" viewBox="0 0 30 30" fill="none" xmlns="http://www.w3.org/2000/svg">
<g clip-path="url(#clip0_92_768)">
<path d="M12 22.4884C14.5582 22.4884 16.8838 21.5814 18.6977 20.0465L26.8372 28.186C27.0233 28.3721 27.2558 28.4651 27.5117 28.4651C27.7675 28.4651 28 28.3721 28.1861 28.186C28.5582 27.814 28.5582 27.2093 28.1861 26.8372L20.0465 18.6977C21.5582 16.8837 22.4884 14.5349 22.4884 12C22.4884 6.2093 17.7907 1.51163 12 1.51163C6.23259 1.51163 1.51166 6.23256 1.51166 12C1.51166 17.7907 6.23259 22.4884 12 22.4884ZM12 3.4186C16.7442 3.4186 20.5814 7.27907 20.5814 12C20.5814 16.7442 16.7442 20.5814 12 20.5814C7.25584 20.5814 3.41863 16.7209 3.41863 12C3.41863 7.27907 7.2791 3.4186 12 3.4186Z" fill="black"/>
</g>
<defs>
<clipPath id="clip0_92_768">
<rect width="30" height="30" fill="white"/>
</clipPath>
</defs>
</svg>
